<svg xmlns="http://www.w3.org/2000/svg" width="24.45" height="18.08" viewBox="0 0 24.45 18.08"><defs><style>.a{fill:#131e30;stroke:#131e30;stroke-linecap:square;stroke-width:0.7px;}</style></defs><g transform="translate(0.35 0.348)"><path class="a" d="M13.75,10H2.531a.679.679,0,0,0,0,1.325H13.75a.674.674,0,0,0,0-1.325Z" transform="translate(-2 -1.943)"/><path class="a" d="M25.008,15H2.742a.667.667,0,1,0,0,1.325H25.008a.667.667,0,1,0,0-1.325Z" transform="translate(-2 -14.998)"/><path class="a" d="M5.9,10H2.392a.757.757,0,0,0,0,1.325H5.9A.828.828,0,0,0,5.9,10Z" transform="translate(-2 6.057)"/></g></svg>